<?xml version="1.0" standalone="no"?>
<!DOCTYPE svg PUBLIC "-//W3C//DTD SVG 20010904//EN"
 "http://www.w3.org/TR/2001/REC-SVG-20010904/DTD/svg10.dtd">
<svg version="1.0" xmlns="http://www.w3.org/2000/svg"
 width="260.000000pt" height="260.000000pt" viewBox="0 0 260.000000 260.000000"
 preserveAspectRatio="xMidYMid meet">
<metadata>
Created by potrace 1.14, written by Peter Selinger 2001-2017
</metadata>
<g transform="translate(0.000000,260.000000) scale(0.100000,-0.100000)"
fill="#000000" stroke="none">
<path d="M0 1300 l0 -1300 1300 0 1300 0 0 1300 0 1300 -1300 0 -1300 0 0
-1300z m1965 0 l0 -505 -665 0 -665 0 -3 495 c-1 272 0 501 3 508 3 10 142 12
667 10 l663 -3 0 -505z"/>
<path d="M650 1300 l0 -480 650 0 650 0 0 480 0 480 -650 0 -650 0 0 -480z
m734 381 c103 -24 147 -157 84 -258 -11 -18 -24 -33 -29 -33 -24 0 -17 -32 15
-78 52 -72 49 -82 -23 -82 l-59 0 -51 65 c-69 88 -97 85 -103 -10 l-3 -50 -43
-3 c-72 -5 -71 -6 -71 226 0 134 3 210 11 219 12 15 209 18 272 4z m-530 -563
c40 -21 49 -64 20 -93 -15 -14 -15 -21 -4 -56 7 -21 10 -42 7 -45 -11 -12 -56
25 -63 51 -9 36 -24 31 -24 -9 0 -33 -20 -53 -41 -40 -10 6 -13 187 -4 196 10
10 88 7 109 -4z m211 -9 c14 -14 -5 -27 -45 -31 -42 -4 -45 -21 -4 -28 21 -4
29 -11 29 -25 0 -14 -8 -21 -29 -25 -41 -7 -35 -24 11 -30 25 -3 38 -10 38
-20 0 -12 -14 -15 -65 -15 l-65 1 -3 83 c-4 103 2 112 71 105 29 -3 56 -10 62
-15z m208 -39 c14 55 41 78 53 45 7 -17 -33 -155 -51 -173 -9 -10 -16 -3 -35
37 -27 56 -39 55 -60 -9 -7 -22 -19 -40 -25 -40 -11 0 -55 138 -55 174 0 9 8
16 20 16 15 0 21 -9 26 -40 8 -48 17 -51 34 -7 25 61 32 63 59 10 l24 -48 10
35z m145 -49 c-3 -88 -5 -96 -23 -96 -18 0 -20 8 -23 94 -3 96 4 116 35 104
11 -4 13 -27 11 -102z m418 75 c45 -45 48 -104 8 -141 -27 -25 -36 -27 -104
-28 l-35 0 -3 88 c-2 49 -1 94 2 102 3 8 22 13 52 13 39 0 51 -5 80 -34z
m-296 -21 c24 -25 48 -45 52 -45 4 0 8 20 8 45 0 38 3 45 20 45 19 0 20 -7 20
-95 0 -52 -3 -95 -8 -95 -4 0 -30 20 -57 45 l-50 44 -3 -39 c-2 -21 -10 -44
-17 -50 -22 -18 -35 26 -35 116 0 89 8 92 70 29z"/>
<path d="M1232 1568 c-7 -7 -12 -34 -12 -60 l0 -48 66 3 c51 2 69 7 80 22 21
28 17 62 -8 79 -26 19 -109 21 -126 4z"/>
<path d="M1350 1401 c0 -6 5 -13 10 -16 6 -3 10 1 10 9 0 9 -4 16 -10 16 -5 0
-10 -4 -10 -9z"/>
<path d="M792 1055 c4 -19 1 -25 -13 -25 -11 0 -19 -4 -19 -9 0 -5 8 -7 19 -4
10 3 22 0 25 -6 11 -17 30 -13 44 10 12 19 11 20 -10 15 -13 -3 -17 -3 -10 0
6 3 12 14 12 25 0 14 -7 19 -26 19 -23 0 -26 -3 -22 -25z"/>
<path d="M1750 1025 c0 -48 3 -55 19 -55 11 0 27 7 35 16 33 32 10 94 -35 94
-16 0 -19 -7 -19 -55z"/>
</g>
</svg>
